<svg width="150" height="55" viewBox="0 0 601 160" fill="none" xmlns="http://www.w3.org/2000/svg">
<rect fill="#E5E5E5"/>
<g clip-path="url(#clip0_0_1)">
<rect width="601" height="160" fill="white"/>
<path d="M321.352 133L336.807 39.9091H362.079L356.079 76.2727H389.534L395.534 39.9091H420.807L405.352 133H380.079L386.079 96.6364H352.625L346.625 133H321.352Z" fill="#F7C74B"/>
<path d="M321.352 133L320.366 132.836L320.172 134H321.352V133ZM336.807 39.9091V38.9091H335.959L335.82 39.7453L336.807 39.9091ZM362.079 39.9091L363.066 40.0719L363.258 38.9091H362.079V39.9091ZM356.079 76.2727L355.093 76.1099L354.901 77.2727H356.079V76.2727ZM389.534 76.2727V77.2727H390.382L390.521 76.4355L389.534 76.2727ZM395.534 39.9091V38.9091H394.685L394.547 39.7463L395.534 39.9091ZM420.807 39.9091L421.793 40.0729L421.986 38.9091H420.807V39.9091ZM405.352 133V134H406.2L406.339 133.164L405.352 133ZM380.079 133L379.093 132.837L378.901 134H380.079V133ZM386.079 96.6364L387.066 96.7992L387.258 95.6364H386.079V96.6364ZM352.625 96.6364V95.6364H351.776L351.638 96.4736L352.625 96.6364ZM346.625 133V134H347.473L347.612 133.163L346.625 133ZM322.339 133.164L337.793 40.0729L335.82 39.7453L320.366 132.836L322.339 133.164ZM336.807 40.9091H362.079V38.9091H336.807V40.9091ZM361.093 39.7463L355.093 76.1099L357.066 76.4355L363.066 40.0719L361.093 39.7463ZM356.079 77.2727H389.534V75.2727H356.079V77.2727ZM390.521 76.4355L396.521 40.0719L394.547 39.7463L388.547 76.1099L390.521 76.4355ZM395.534 40.9091H420.807V38.9091H395.534V40.9091ZM419.82 39.7453L404.366 132.836L406.339 133.164L421.793 40.0729L419.82 39.7453ZM405.352 132H380.079V134H405.352V132ZM381.066 133.163L387.066 96.7992L385.093 96.4736L379.093 132.837L381.066 133.163ZM386.079 95.6364H352.625V97.6364H386.079V95.6364ZM351.638 96.4736L345.638 132.837L347.612 133.163L353.612 96.7992L351.638 96.4736ZM346.625 132H321.352V134H346.625V132Z" fill="black"/>
<path d="M510.598 88.0909C508.901 98.2121 505.537 106.697 500.507 113.545C495.477 120.394 489.371 125.561 482.189 129.045C475.007 132.53 467.325 134.273 459.143 134.273C450.416 134.273 442.84 132.379 436.416 128.591C429.992 124.803 425.31 119.258 422.371 111.955C419.431 104.652 418.84 95.7273 420.598 85.1818C422.234 75.0606 425.568 66.5455 430.598 59.6364C435.628 52.7273 441.765 47.5 449.007 43.9545C456.249 40.4091 463.992 38.6364 472.234 38.6364C480.901 38.6364 488.431 40.5455 494.825 44.3636C501.249 48.1818 505.916 53.7727 508.825 61.1364C511.765 68.5 512.356 77.4848 510.598 88.0909ZM485.143 85.1818C485.992 79.8485 486.053 75.3636 485.325 71.7273C484.598 68.0606 483.068 65.303 480.734 63.4545C478.401 61.5758 475.265 60.6364 471.325 60.6364C466.84 60.6364 462.871 61.7273 459.416 63.9091C455.962 66.0909 453.098 69.2273 450.825 73.3182C448.553 77.4091 446.962 82.3333 446.053 88.0909C445.083 93.4848 444.992 97.9697 445.78 101.545C446.598 105.121 448.204 107.803 450.598 109.591C453.022 111.379 456.174 112.273 460.053 112.273C464.477 112.273 468.386 111.212 471.78 109.091C475.204 106.97 478.037 103.894 480.28 99.8636C482.553 95.8333 484.174 90.9394 485.143 85.1818Z" fill="#F7C74B"/>
<path d="M510.598 88.0909L511.584 88.2563L511.585 88.2544L510.598 88.0909ZM500.507 113.545L499.701 112.953V112.953L500.507 113.545ZM482.189 129.045L482.625 129.945L482.189 129.045ZM436.416 128.591L436.924 127.729L436.416 128.591ZM422.371 111.955L423.298 111.581L422.371 111.955ZM420.598 85.1818L421.584 85.3462L421.585 85.3414L420.598 85.1818ZM430.598 59.6364L429.79 59.0478L430.598 59.6364ZM449.007 43.9545L448.567 43.0564L449.007 43.9545ZM494.825 44.3636L494.313 45.2222L494.314 45.2233L494.825 44.3636ZM508.825 61.1364L507.895 61.5038L507.896 61.5071L508.825 61.1364ZM485.143 85.1818L486.13 85.3479L486.131 85.3389L485.143 85.1818ZM485.325 71.7273L484.344 71.9218L484.345 71.9234L485.325 71.7273ZM480.734 63.4545L480.107 64.2335L480.113 64.2384L480.734 63.4545ZM459.416 63.9091L458.882 63.0636L459.416 63.9091ZM446.053 88.0909L447.037 88.2678L447.039 88.2574L447.04 88.2469L446.053 88.0909ZM445.78 101.545L444.803 101.761L444.805 101.769L445.78 101.545ZM450.598 109.591L450 110.392L450.004 110.396L450.598 109.591ZM471.78 109.091L471.253 108.241L471.25 108.243L471.78 109.091ZM480.28 99.8636L479.409 99.3724L479.406 99.3774L480.28 99.8636ZM509.612 87.9256C507.935 97.9241 504.621 106.255 499.701 112.953L501.313 114.137C506.453 107.139 509.867 98.5001 511.584 88.2563L509.612 87.9256ZM499.701 112.953C494.761 119.68 488.778 124.736 481.752 128.146L482.625 129.945C489.963 126.385 496.193 121.108 501.313 114.137L499.701 112.953ZM481.752 128.146C474.71 131.563 467.178 133.273 459.143 133.273V135.273C467.473 135.273 475.304 133.498 482.625 129.945L481.752 128.146ZM459.143 133.273C450.564 133.273 443.17 131.412 436.924 127.729L435.908 129.452C442.511 133.345 450.268 135.273 459.143 135.273V133.273ZM436.924 127.729C430.701 124.06 426.16 118.692 423.298 111.581L421.443 112.328C424.46 119.823 429.283 125.546 435.908 129.452L436.924 127.729ZM423.298 111.581C420.448 104.499 419.847 95.7731 421.584 85.3462L419.612 85.0174C417.834 95.6815 418.415 104.804 421.443 112.328L423.298 111.581ZM421.585 85.3414C423.201 75.3446 426.485 66.9841 431.406 60.225L429.79 59.0478C424.65 66.1068 421.267 74.7766 419.611 85.0222L421.585 85.3414ZM431.406 60.225C436.347 53.4394 442.359 48.3222 449.447 44.8527L448.567 43.0564C441.17 46.6778 434.91 52.0151 429.79 59.0478L431.406 60.225ZM449.447 44.8527C456.549 41.3758 464.141 39.6364 472.234 39.6364V37.6364C463.843 37.6364 455.95 39.4424 448.567 43.0564L449.447 44.8527ZM472.234 39.6364C480.75 39.6364 488.097 41.5108 494.313 45.2222L495.338 43.5051C488.765 39.5801 481.052 37.6364 472.234 37.6364V39.6364ZM494.314 45.2233C500.536 48.9213 505.062 54.333 507.895 61.5038L509.755 60.7689C506.77 53.2125 501.963 47.4423 495.336 43.504L494.314 45.2233ZM507.896 61.5071C510.748 68.6512 511.349 77.4395 509.611 87.9274L511.585 88.2544C513.362 77.5302 512.781 68.3488 509.754 60.7656L507.896 61.5071ZM486.131 85.3389C486.99 79.9371 487.064 75.3241 486.306 71.5312L484.345 71.9234C485.041 75.4032 484.993 79.7599 484.156 85.0247L486.131 85.3389ZM486.306 71.5327C485.545 67.6945 483.919 64.7013 481.355 62.6707L480.113 64.2384C482.217 65.9047 483.651 68.4267 484.344 71.9218L486.306 71.5327ZM481.361 62.6757C478.801 60.6142 475.42 59.6364 471.325 59.6364V61.6364C475.109 61.6364 478.001 62.5373 480.107 64.2334L481.361 62.6757ZM471.325 59.6364C466.671 59.6364 462.512 60.7711 458.882 63.0636L459.95 64.7546C463.229 62.6834 467.01 61.6364 471.325 61.6364V59.6364ZM458.882 63.0636C455.266 65.3472 452.293 68.6166 449.951 72.8325L451.699 73.8038C453.903 69.8379 456.657 66.8346 459.95 64.7546L458.882 63.0636ZM449.951 72.8325C447.609 77.0475 445.988 82.089 445.065 87.9349L447.04 88.2469C447.935 82.5777 449.496 77.7707 451.699 73.8038L449.951 72.8325ZM445.068 87.914C444.086 93.3793 443.976 98.0084 444.803 101.761L446.756 101.33C446.007 97.931 446.08 93.5904 447.037 88.2678L445.068 87.914ZM444.805 101.769C445.664 105.521 447.375 108.432 450 110.392L451.196 108.79C449.033 107.174 447.532 104.722 446.755 101.322L444.805 101.769ZM450.004 110.396C452.644 112.343 456.022 113.273 460.053 113.273V111.273C456.326 111.273 453.4 110.415 451.192 108.786L450.004 110.396ZM460.053 113.273C464.644 113.273 468.74 112.17 472.31 109.939L471.25 108.243C468.031 110.254 464.31 111.273 460.053 111.273V113.273ZM472.306 109.941C475.895 107.718 478.841 104.507 481.154 100.35L479.406 99.3774C477.234 103.281 474.513 106.222 471.253 108.241L472.306 109.941ZM481.151 100.355C483.493 96.2011 485.145 91.1911 486.13 85.3479L484.157 85.0157C483.202 90.6877 481.612 95.4655 479.409 99.3724L481.151 100.355Z" fill="black"/>
<path d="M509.739 134L525.193 40.9091H565.375C572.284 40.9091 578.102 42.2727 582.829 45C587.557 47.7273 590.951 51.5606 593.011 56.5C595.072 61.4394 595.557 67.2121 594.466 73.8182C593.375 80.5455 590.951 86.3485 587.193 91.2273C583.466 96.0758 578.708 99.8182 572.92 102.455C567.163 105.061 560.708 106.364 553.557 106.364H529.557L532.829 86.7273H551.739C554.769 86.7273 557.435 86.2121 559.739 85.1818C562.042 84.1212 563.905 82.6364 565.329 80.7273C566.754 78.7879 567.678 76.4848 568.102 73.8182C568.526 71.1515 568.329 68.8788 567.511 67C566.723 65.0909 565.36 63.6364 563.42 62.6364C561.511 61.6061 559.072 61.0909 556.102 61.0909H547.193L535.011 134H509.739Z" fill="#F7C74B"/>
<path d="M509.739 134L508.752 133.836L508.559 135H509.739V134ZM525.193 40.9091V39.9091H524.345L524.207 40.7453L525.193 40.9091ZM582.829 45L582.33 45.8662L582.33 45.8662L582.829 45ZM593.011 56.5L593.934 56.115L593.934 56.115L593.011 56.5ZM594.466 73.8182L593.479 73.6552L593.479 73.6581L594.466 73.8182ZM587.193 91.2273L586.401 90.6171L586.4 90.6178L587.193 91.2273ZM572.92 102.455L573.333 103.366L573.335 103.365L572.92 102.455ZM529.557 106.364L528.57 106.199L528.376 107.364H529.557V106.364ZM532.829 86.7273V85.7273H531.982L531.843 86.5629L532.829 86.7273ZM559.739 85.1818L560.147 86.0947L560.157 86.0901L559.739 85.1818ZM565.329 80.7273L566.131 81.3253L566.135 81.3192L565.329 80.7273ZM568.102 73.8182L569.09 73.9753L569.09 73.9753L568.102 73.8182ZM567.511 67L566.587 67.3815L566.591 67.3904L566.594 67.3993L567.511 67ZM563.42 62.6364L562.945 63.5164L562.954 63.5209L562.962 63.5252L563.42 62.6364ZM547.193 61.0909V60.0909H546.346L546.207 60.9261L547.193 61.0909ZM535.011 134V135H535.858L535.998 134.165L535.011 134ZM510.725 134.164L526.18 41.0729L524.207 40.7453L508.752 133.836L510.725 134.164ZM525.193 41.9091H565.375V39.9091H525.193V41.9091ZM565.375 41.9091C572.154 41.9091 577.79 43.247 582.33 45.8662L583.329 44.1338C578.415 41.2985 572.414 39.9091 565.375 39.9091V41.9091ZM582.33 45.8662C586.871 48.4862 590.114 52.1524 592.088 56.885L593.934 56.115C591.787 50.9688 588.242 46.9684 583.329 44.1338L582.33 45.8662ZM592.088 56.885C594.061 61.6127 594.547 67.188 593.479 73.6552L595.452 73.9811C596.566 67.2363 596.083 61.2661 593.934 56.115L592.088 56.885ZM593.479 73.6581C592.411 80.2393 590.047 85.8834 586.401 90.6171L587.985 91.8375C591.855 86.8135 594.338 80.8516 595.453 73.9783L593.479 73.6581ZM586.4 90.6178C582.777 95.3314 578.151 98.9731 572.506 101.545L573.335 103.365C579.265 100.663 584.155 96.8201 587.986 91.8367L586.4 90.6178ZM572.508 101.544C566.896 104.084 560.585 105.364 553.557 105.364V107.364C560.832 107.364 567.43 106.038 573.333 103.366L572.508 101.544ZM553.557 105.364H529.557V107.364H553.557V105.364ZM530.543 106.528L533.816 86.8917L531.843 86.5629L528.57 106.199L530.543 106.528ZM532.829 87.7273H551.739V85.7273H532.829V87.7273ZM551.739 87.7273C554.882 87.7273 557.692 87.1928 560.147 86.0946L559.33 84.269C557.179 85.2315 554.656 85.7273 551.739 85.7273V87.7273ZM560.157 86.0901C562.601 84.9643 564.6 83.3768 566.131 81.3252L564.528 80.1293C563.21 81.896 561.482 83.2781 559.32 84.2735L560.157 86.0901ZM566.135 81.3192C567.665 79.2364 568.644 76.7798 569.09 73.9753L567.115 73.6611C566.712 76.1899 565.842 78.3394 564.523 80.1354L566.135 81.3192ZM569.09 73.9753C569.535 71.1789 569.343 68.7019 568.428 66.6007L566.594 67.3993C567.316 69.0557 567.518 71.1242 567.115 73.6611L569.09 73.9753ZM568.436 66.6185C567.552 64.4774 566.016 62.8495 563.879 61.7476L562.962 63.5252C564.704 64.4233 565.895 65.7044 566.587 67.3815L568.436 66.6185ZM563.895 61.7563C561.796 60.6236 559.179 60.0909 556.102 60.0909V62.0909C558.964 62.0909 561.226 62.5885 562.945 63.5164L563.895 61.7563ZM556.102 60.0909H547.193V62.0909H556.102V60.0909ZM546.207 60.9261L534.025 133.835L535.998 134.165L548.179 61.2557L546.207 60.9261ZM535.011 133H509.739V135H535.011V133Z" fill="black"/>
<path d="M300.811 70C301.083 67 300.356 64.6515 298.629 62.9545C296.901 61.2273 293.992 60.3636 289.901 60.3636C287.295 60.3636 285.114 60.6667 283.356 61.2727C281.629 61.8788 280.28 62.7121 279.311 63.7727C278.371 64.8333 277.78 66.0606 277.538 67.4545C277.265 68.5455 277.28 69.5455 277.583 70.4545C277.917 71.3333 278.538 72.1364 279.447 72.8636C280.386 73.5909 281.614 74.2424 283.129 74.8182C284.674 75.3939 286.508 75.9091 288.629 76.3636L295.901 78C300.871 79.0909 305.038 80.5303 308.401 82.3182C311.795 84.0758 314.462 86.1667 316.401 88.5909C318.341 91.0152 319.614 93.7273 320.22 96.7273C320.856 99.7273 320.871 103 320.265 106.545C319.235 112.667 316.856 117.848 313.129 122.091C309.401 126.333 304.538 129.561 298.538 131.773C292.538 133.985 285.598 135.091 277.72 135.091C269.659 135.091 262.811 133.894 257.174 131.5C251.568 129.076 247.508 125.379 244.992 120.409C242.508 115.409 241.901 109.03 243.174 101.273H267.174C266.811 104.121 267.114 106.515 268.083 108.455C269.053 110.394 270.614 111.864 272.765 112.864C274.917 113.864 277.598 114.364 280.811 114.364C283.538 114.364 285.871 114.03 287.811 113.364C289.75 112.697 291.28 111.773 292.401 110.591C293.523 109.409 294.204 108.061 294.447 106.545C294.689 105.152 294.447 103.909 293.72 102.818C292.992 101.727 291.674 100.742 289.765 99.8636C287.856 98.9848 285.235 98.1818 281.901 97.4545L272.992 95.4545C265.083 93.6364 259.114 90.6364 255.083 86.4545C251.053 82.2727 249.629 76.5455 250.811 69.2727C251.78 63.3333 254.22 58.1515 258.129 53.7273C262.068 49.2727 267.068 45.8182 273.129 43.3636C279.22 40.8788 285.962 39.6364 293.356 39.6364C300.871 39.6364 307.159 40.8939 312.22 43.4091C317.311 45.9242 320.962 49.4545 323.174 54C325.417 58.5455 326.023 63.8788 324.992 70H300.811Z" fill="#F7C74B"/>
<path d="M300.811 70L299.815 69.9095L299.716 71H300.811V70ZM298.629 62.9545L297.922 63.6617L297.928 63.6679L298.629 62.9545ZM283.356 61.2727L283.03 60.3273L283.025 60.3291L283.356 61.2727ZM279.311 63.7727L278.573 63.098L278.567 63.1038L278.562 63.1097L279.311 63.7727ZM277.538 67.4545L278.508 67.6971L278.517 67.6618L278.523 67.6259L277.538 67.4545ZM277.583 70.4545L276.635 70.7708L276.641 70.7901L276.648 70.8092L277.583 70.4545ZM279.447 72.8636L278.822 73.6445L278.828 73.6495L278.835 73.6544L279.447 72.8636ZM283.129 74.8182L282.774 75.753L282.78 75.7553L283.129 74.8182ZM288.629 76.3636L288.848 75.388L288.838 75.3858L288.629 76.3636ZM295.901 78L295.682 78.9756L295.687 78.9767L295.901 78ZM308.401 82.3182L307.932 83.2012L307.942 83.2062L308.401 82.3182ZM316.401 88.5909L315.621 89.2156V89.2156L316.401 88.5909ZM320.22 96.7273L319.239 96.9253L319.241 96.9348L320.22 96.7273ZM320.265 106.545L319.279 106.377L319.279 106.379L320.265 106.545ZM313.129 122.091L312.377 121.431L313.129 122.091ZM298.538 131.773L298.192 130.834L298.538 131.773ZM257.174 131.5L256.777 132.418L256.783 132.42L257.174 131.5ZM244.992 120.409L244.097 120.854L244.1 120.861L244.992 120.409ZM243.174 101.273V100.273H242.325L242.187 101.111L243.174 101.273ZM267.174 101.273L268.166 101.399L268.31 100.273H267.174V101.273ZM268.083 108.455L268.978 108.007H268.978L268.083 108.455ZM272.765 112.864L272.344 113.77L272.765 112.864ZM292.401 110.591L291.676 109.903L292.401 110.591ZM294.447 106.545L293.462 106.374L293.459 106.387L294.447 106.545ZM293.72 102.818L292.888 103.373L293.72 102.818ZM289.765 99.8636L289.347 100.772L289.765 99.8636ZM281.901 97.4545L281.682 98.4303L281.688 98.4316L281.901 97.4545ZM272.992 95.4545L272.768 96.4291L272.773 96.4303L272.992 95.4545ZM250.811 69.2727L249.824 69.1116L249.823 69.1123L250.811 69.2727ZM258.129 53.7273L257.38 53.0648L257.379 53.0651L258.129 53.7273ZM273.129 43.3636L273.504 44.2905L273.506 44.2895L273.129 43.3636ZM312.22 43.4091L311.775 44.3046L311.777 44.3056L312.22 43.4091ZM323.174 54L322.275 54.4376L322.277 54.4424L323.174 54ZM324.992 70V71H325.838L325.979 70.166L324.992 70ZM301.806 70.0905C302.099 66.8716 301.322 64.1987 299.33 62.2412L297.928 63.6679C299.39 65.1044 300.067 67.1284 299.815 69.9095L301.806 70.0905ZM299.336 62.2474C297.328 60.2399 294.089 59.3636 289.901 59.3636V61.3636C293.896 61.3636 296.475 62.2146 297.922 63.6617L299.336 62.2474ZM289.901 59.3636C287.226 59.3636 284.925 59.6738 283.03 60.3274L283.682 62.2181C285.302 61.6595 287.365 61.3636 289.901 61.3636V59.3636ZM283.025 60.3291C281.184 60.9752 279.68 61.8867 278.573 63.098L280.049 64.4475C280.881 63.5376 282.074 62.7823 283.687 62.2163L283.025 60.3291ZM278.562 63.1097C277.5 64.3089 276.827 65.7063 276.553 67.2832L278.523 67.6259C278.734 66.4149 279.242 65.3578 280.059 64.4358L278.562 63.1097ZM276.568 67.212C276.257 68.4549 276.262 69.6519 276.635 70.7708L278.532 70.1383C278.299 69.439 278.273 68.636 278.508 67.6971L276.568 67.212ZM276.648 70.8092C277.059 71.8909 277.807 72.832 278.822 73.6445L280.072 72.0828C279.269 71.4408 278.775 70.7758 278.518 70.0999L276.648 70.8092ZM278.835 73.6544C279.875 74.4595 281.197 75.154 282.774 75.753L283.484 73.8834C282.03 73.3309 280.898 72.7223 280.059 72.0729L278.835 73.6544ZM282.78 75.7553C284.382 76.3523 286.264 76.8797 288.419 77.3414L288.838 75.3858C286.751 74.9385 284.966 74.4356 283.478 73.8811L282.78 75.7553ZM288.409 77.3392L295.682 78.9756L296.121 77.0244L288.848 75.388L288.409 77.3392ZM295.687 78.9767C300.596 80.0542 304.671 81.4676 307.932 83.2012L308.871 81.4352C305.405 79.593 301.147 78.1276 296.116 77.0233L295.687 78.9767ZM307.942 83.2062C311.239 84.9139 313.786 86.9228 315.621 89.2156L317.182 87.9662C315.138 85.4105 312.352 83.2376 308.861 81.4302L307.942 83.2062ZM315.621 89.2156C317.462 91.5174 318.665 94.0837 319.239 96.9253L321.2 96.5293C320.562 93.3709 319.22 90.5129 317.182 87.9662L315.621 89.2156ZM319.241 96.9348C319.847 99.7916 319.868 102.935 319.279 106.377L321.251 106.714C321.875 103.065 321.865 99.6629 321.198 96.5198L319.241 96.9348ZM319.279 106.379C318.276 112.336 315.97 117.342 312.377 121.431L313.88 122.751C317.742 118.355 320.193 112.997 321.251 106.711L319.279 106.379ZM312.377 121.431C308.774 125.533 304.057 128.672 298.192 130.834L298.884 132.711C305.019 130.449 310.029 127.134 313.88 122.751L312.377 121.431ZM298.192 130.834C292.325 132.998 285.507 134.091 277.72 134.091V136.091C285.69 136.091 292.751 134.972 298.884 132.711L298.192 130.834ZM277.72 134.091C269.753 134.091 263.045 132.907 257.565 130.58L256.783 132.42C262.576 134.881 269.565 136.091 277.72 136.091V134.091ZM257.571 130.582C252.157 128.241 248.284 124.698 245.885 119.958L244.1 120.861C246.731 126.059 250.979 129.91 256.777 132.418L257.571 130.582ZM245.888 119.964C243.527 115.214 242.909 109.067 244.161 101.435L242.187 101.111C240.894 108.993 241.488 115.604 244.097 120.854L245.888 119.964ZM243.174 102.273H267.174V100.273H243.174V102.273ZM266.182 101.146C265.801 104.129 266.106 106.736 267.189 108.902L268.978 108.007C268.121 106.294 267.82 104.114 268.166 101.399L266.182 101.146ZM267.189 108.902C268.269 111.063 270.008 112.685 272.344 113.77L273.187 111.957C271.22 111.043 269.837 109.725 268.978 108.007L267.189 108.902ZM272.344 113.77C274.665 114.85 277.502 115.364 280.811 115.364V113.364C277.695 113.364 275.168 112.878 273.187 111.957L272.344 113.77ZM280.811 115.364C283.614 115.364 286.064 115.022 288.136 114.309L287.485 112.418C285.679 113.039 283.461 113.364 280.811 113.364V115.364ZM288.136 114.309C290.189 113.604 291.87 112.604 293.127 111.279L291.676 109.903C290.691 110.941 289.311 111.79 287.485 112.418L288.136 114.309ZM293.127 111.279C294.378 109.961 295.158 108.43 295.434 106.703L293.459 106.387C293.251 107.691 292.667 108.858 291.676 109.903L293.127 111.279ZM295.432 106.717C295.715 105.092 295.433 103.586 294.552 102.263L292.888 103.373C293.461 104.233 293.664 105.211 293.462 106.374L295.432 106.717ZM294.552 102.263C293.677 100.952 292.169 99.8691 290.183 98.9553L289.347 100.772C291.18 101.616 292.307 102.503 292.888 103.373L294.552 102.263ZM290.183 98.9553C288.181 98.0335 285.481 97.2119 282.115 96.4775L281.688 98.4316C284.989 99.1517 287.531 99.9362 289.347 100.772L290.183 98.9553ZM282.12 96.4788L273.211 94.4788L272.773 96.4303L281.682 98.4303L282.12 96.4788ZM273.216 94.48C265.424 92.6886 259.655 89.7575 255.803 85.7606L254.363 87.1485C258.572 91.5152 264.742 94.5841 272.768 96.4291L273.216 94.48ZM255.803 85.7606C252.049 81.8654 250.651 76.4871 251.798 69.4331L249.823 69.1123C248.606 76.6038 250.057 82.6801 254.363 87.1485L255.803 85.7606ZM251.797 69.4339C252.737 63.6767 255.096 58.6695 258.878 54.3894L257.379 53.0651C253.343 57.6335 250.823 62.99 249.824 69.1116L251.797 69.4339ZM258.878 54.3897C262.705 50.0622 267.572 46.6929 273.504 44.2905L272.753 42.4368C266.564 44.9435 261.431 48.4832 257.38 53.0648L258.878 54.3897ZM273.506 44.2895C279.463 41.8593 286.076 40.6364 293.356 40.6364V38.6364C285.849 38.6364 278.976 39.8982 272.751 42.4377L273.506 44.2895ZM293.356 40.6364C300.765 40.6364 306.89 41.877 311.775 44.3046L312.665 42.5136C307.428 39.9109 300.977 38.6364 293.356 38.6364V40.6364ZM311.777 44.3056C316.695 46.7354 320.172 50.1159 322.275 54.4376L324.073 53.5624C321.752 48.7932 317.926 45.1131 312.663 42.5125L311.777 44.3056ZM322.277 54.4424C324.408 58.7606 325.01 63.8726 324.006 69.834L325.979 70.166C327.036 63.885 326.426 58.3303 324.071 53.5576L322.277 54.4424ZM324.992 69H300.811V71H324.992V69Z" fill="black"/>
<path d="M223.316 105.178L204.06 85.3496L214.167 75.0305L233.5 94.9303V105.178H223.316Z" fill="#F7C74B" stroke="black"/>
<path d="M232.422 47.0075L214.168 65.6541L204.058 55.3314L222.243 36.7606H232.422V47.0075Z" fill="#F7C74B" stroke="black"/>
<path d="M199.113 59.6581L199.113 59.6582L209.577 70.3416L199.113 81.0249L199.112 81.0261L175.618 105.178H165.433V94.9305L189.021 70.6903L189.362 70.3405L189.02 69.9918L166.512 47.0075V36.7606H176.69L199.113 59.6581Z" fill="#F7C74B" stroke="black"/>
<path d="M124.805 34.4286C115.822 34.4227 107.175 37.8578 100.624 44.0347L98.303 36.2126H87.9399V136.555H102.959V99.6128C109.2 104.506 116.889 107.163 124.805 107.16C145.183 107.16 160.557 91.5232 160.557 70.7945C160.557 50.0659 145.183 34.4286 124.805 34.4286ZM145.176 70.7945C145.176 83.303 135.905 92.7513 123.61 92.7513C117.816 92.7513 112.26 90.4379 108.163 86.3202C104.066 82.2026 101.764 76.6178 101.764 70.7945C101.764 64.9712 104.066 59.3864 108.163 55.2687C112.26 51.151 117.816 48.8377 123.61 48.8377C135.905 48.8377 145.176 58.2929 145.176 70.7945Z" fill="black"/>
<path d="M64.2125 45.8394C57.6291 39.508 48.864 35.9822 39.7521 36.0001C19.374 36.0001 4 51.6374 4 72.3659C4 93.0946 19.374 108.732 39.7521 108.732C48.799 108.75 57.507 105.275 64.0761 99.0229L65.1139 107.257H77.5248V37.7841H65.7828L64.2125 45.8394ZM40.9468 94.3227C28.6585 94.3227 19.3808 84.8882 19.3808 72.3659C19.3808 59.8437 28.6517 50.4092 40.9468 50.4092C46.7406 50.4092 52.2971 52.7225 56.3941 56.8402C60.4911 60.9579 62.7928 66.5426 62.7928 72.3659C62.7928 78.1892 60.4911 83.7739 56.3941 87.8916C52.2971 92.0093 46.7406 94.3227 40.9468 94.3227Z" fill="black"/>
</g>
<defs>
<clipPath id="clip0_0_1">
<rect width="601" height="160" fill="white"/>
</clipPath>
</defs>
</svg>
