<svg width="100" height="100" viewBox="0 0 18 17" fill="none" xmlns="http://www.w3.org/2000/svg">
<rect width="100" height="100" />
<path d="M15.4174 0.537906C15.4174 0.537906 14.9038 1.07122 13.5844 2.26373C15.8019 0.225579 11.1348 4.57022 8.03998 7.48422L6.57822 8.86059C6.67815 8.76651 6.41862 9.00973 6.57822 8.86059C6.68386 8.76113 6.57822 8.86059 5.48189 9.89286L4.85379 10.4843L0.571256 14.5166C0.419816 14.6592 0.330365 14.8552 0.322581 15.0615C0.314798 15.2678 0.389318 15.4674 0.52975 15.6166L1.58875 16.7413C1.72918 16.8904 1.92402 16.9768 2.1304 16.9815C2.33679 16.9861 2.53781 16.9086 2.68925 16.766L17.5354 2.78733C17.6868 2.64474 17.7763 2.44874 17.784 2.24245C17.7918 2.03616 17.7173 1.83648 17.5769 1.68733L16.5179 0.56262C16.3774 0.413474 16.1826 0.327081 15.9762 0.322446C15.7698 0.317811 15.5688 0.395314 15.4174 0.537906Z" fill="white"/>
<path d="M15.4174 0.537906C15.4174 0.537906 14.9038 1.07122 13.5844 2.26373C15.8019 0.225579 11.1348 4.57022 8.03998 7.48422L6.57822 8.86059C6.67815 8.76651 6.41862 9.00973 6.57822 8.86059C6.68386 8.76113 6.57822 8.86059 5.48189 9.89286L4.85379 10.4843L0.571256 14.5166C0.419816 14.6592 0.330365 14.8552 0.322581 15.0615C0.314798 15.2678 0.389318 15.4674 0.52975 15.6166L1.58875 16.7413C1.72918 16.8904 1.92402 16.9768 2.1304 16.9815C2.33679 16.9861 2.53781 16.9086 2.68925 16.766L17.5354 2.78733C17.6868 2.64474 17.7763 2.44874 17.784 2.24245C17.7918 2.03616 17.7173 1.83648 17.5769 1.68733L16.5179 0.56262C16.3774 0.413474 16.1826 0.327081 15.9762 0.322446C15.7698 0.317811 15.5688 0.395314 15.4174 0.537906Z" fill="white"/>
<path d="M15.4174 0.537906C15.4174 0.537906 14.9038 1.07122 13.5844 2.26373C15.8019 0.225579 11.1348 4.57022 8.03998 7.48422L6.57822 8.86059C6.67815 8.76651 6.41862 9.00973 6.57822 8.86059C6.68386 8.76113 6.57822 8.86059 5.48189 9.89286L4.85379 10.4843L0.571256 14.5166C0.419816 14.6592 0.330365 14.8552 0.322581 15.0615C0.314798 15.2678 0.389318 15.4674 0.52975 15.6166L1.58875 16.7413C1.72918 16.8904 1.92402 16.9768 2.1304 16.9815C2.33679 16.9861 2.53781 16.9086 2.68925 16.766L17.5354 2.78733C17.6868 2.64474 17.7763 2.44874 17.784 2.24245C17.7918 2.03616 17.7173 1.83648 17.5769 1.68733L16.5179 0.56262C16.3774 0.413474 16.1826 0.327081 15.9762 0.322446C15.7698 0.317811 15.5688 0.395314 15.4174 0.537906Z" fill="white"/>
<path d="M17.6717 14.3401C17.6717 14.3401 17.103 13.866 15.8191 12.6353C18.0108 14.7014 13.3433 10.3568 10.2153 7.47824L8.73788 6.11862C8.83887 6.21156 8.5777 5.97009 8.73788 6.11862C8.84465 6.21687 8.73788 6.11862 7.62981 5.09889L6.99498 4.51468L2.66659 0.531376C2.51353 0.390518 2.3117 0.315232 2.10551 0.32208C1.89932 0.328928 1.70565 0.417349 1.56711 0.567892L0.52237 1.70314C0.38383 1.85368 0.311767 2.05401 0.322034 2.26007C0.332302 2.46612 0.424059 2.66101 0.577121 2.80187L15.5822 16.6106C15.7353 16.7515 15.9371 16.8268 16.1433 16.8199C16.3495 16.8131 16.5432 16.7247 16.6817 16.5741L17.7264 15.4389C17.865 15.2883 17.937 15.088 17.9268 14.8819C17.9165 14.6759 17.8247 14.481 17.6717 14.3401Z" fill="white"/>
<path d="M17.6717 14.3401C17.6717 14.3401 17.103 13.866 15.8191 12.6353C18.0108 14.7014 13.3433 10.3568 10.2153 7.47824L8.73788 6.11862C8.83887 6.21156 8.5777 5.97009 8.73788 6.11862C8.84465 6.21687 8.73788 6.11862 7.62981 5.09889L6.99498 4.51468L2.66659 0.531376C2.51353 0.390518 2.3117 0.315232 2.10551 0.32208C1.89932 0.328928 1.70565 0.417349 1.56711 0.567892L0.52237 1.70314C0.38383 1.85368 0.311767 2.05401 0.322034 2.26007C0.332302 2.46612 0.424059 2.66101 0.577121 2.80187L15.5822 16.6106C15.7353 16.7515 15.9371 16.8268 16.1433 16.8199C16.3495 16.8131 16.5432 16.7247 16.6817 16.5741L17.7264 15.4389C17.865 15.2883 17.937 15.088 17.9268 14.8819C17.9165 14.6759 17.8247 14.481 17.6717 14.3401Z" fill="white"/>
<path d="M17.6717 14.3401C17.6717 14.3401 17.103 13.866 15.8191 12.6353C18.0108 14.7014 13.3433 10.3568 10.2153 7.47824L8.73788 6.11862C8.83887 6.21156 8.5777 5.97009 8.73788 6.11862C8.84465 6.21687 8.73788 6.11862 7.62981 5.09889L6.99498 4.51468L2.66659 0.531376C2.51353 0.390518 2.3117 0.315232 2.10551 0.32208C1.89932 0.328928 1.70565 0.417349 1.56711 0.567892L0.52237 1.70314C0.38383 1.85368 0.311767 2.05401 0.322034 2.26007C0.332302 2.46612 0.424059 2.66101 0.577121 2.80187L15.5822 16.6106C15.7353 16.7515 15.9371 16.8268 16.1433 16.8199C16.3495 16.8131 16.5432 16.7247 16.6817 16.5741L17.7264 15.4389C17.865 15.2883 17.937 15.088 17.9268 14.8819C17.9165 14.6759 17.8247 14.481 17.6717 14.3401Z" fill="white"/>
</svg>
